<svg width="193" height="61" viewBox="0 0 385 122" fill="none" xmlns="http://www.w3.org/2000/svg">
<g filter="url(#filter0_d_427_5581)">
<rect x="30.4121" y="12.9736" width="324.146" height="61" rx="30.5" fill="white" shape-rendering="crispEdges"/>
<path d="M113.379 49.8976C113.032 50.7012 112.62 51.4408 112.143 52.1209C111.493 53.0479 110.96 53.6896 110.55 54.046C109.914 54.6309 109.232 54.9305 108.503 54.9475C107.979 54.9475 107.347 54.7984 106.612 54.496C105.874 54.1951 105.196 54.046 104.576 54.046C103.926 54.046 103.228 54.1951 102.482 54.496C101.735 54.7984 101.133 54.956 100.673 54.9716C99.9735 55.0015 99.276 54.6934 98.5798 54.046C98.1354 53.6584 97.5796 52.994 96.9138 52.0527C96.1994 51.0476 95.612 49.882 95.1519 48.5531C94.6591 47.1178 94.4121 45.7279 94.4121 44.3823C94.4121 42.8409 94.7452 41.5115 95.4123 40.3975C95.9366 39.5026 96.6341 38.7968 97.5071 38.2786C98.3801 37.7604 99.3233 37.4963 100.339 37.4794C100.895 37.4794 101.624 37.6513 102.53 37.9892C103.433 38.3283 104.013 38.5002 104.267 38.5002C104.457 38.5002 105.101 38.2991 106.194 37.8984C107.226 37.5267 108.098 37.3728 108.812 37.4334C110.747 37.5896 112.201 38.3524 113.168 39.7267C111.437 40.7753 110.581 42.244 110.598 44.128C110.614 45.5956 111.146 46.8168 112.193 47.7865C112.667 48.2365 113.196 48.5844 113.785 48.8314C113.658 49.2019 113.523 49.5569 113.379 49.8976ZM108.941 32.4338C108.941 33.584 108.521 34.658 107.684 35.6521C106.673 36.8339 105.45 37.5167 104.124 37.409C104.107 37.271 104.098 37.1258 104.098 36.9731C104.098 35.8689 104.578 34.6871 105.432 33.7209C105.858 33.2316 106.4 32.8249 107.057 32.5003C107.713 32.1807 108.334 32.0039 108.917 31.9736C108.934 32.1274 108.941 32.2812 108.941 32.4337V32.4338Z" fill="black"/>
<path d="M135.662 50.708C139.002 50.708 141.033 49.0771 141.033 46.5088V46.499C141.033 44.3213 139.783 43.1396 136.873 42.5244L135.33 42.2021C133.572 41.8213 132.771 41.1768 132.771 40.1221V40.1123C132.771 38.8818 133.885 38.0518 135.633 38.042C137.303 38.042 138.436 38.833 138.631 40.1416L138.641 40.2783H140.77L140.76 40.1123C140.613 37.749 138.602 36.1475 135.662 36.1475C132.684 36.1475 130.564 37.7979 130.555 40.2002V40.21C130.555 42.2998 131.893 43.5693 134.656 44.1553L136.189 44.4775C138.055 44.8877 138.826 45.5029 138.826 46.6357V46.6455C138.826 47.9639 137.635 48.8135 135.75 48.8135C133.865 48.8135 132.566 48.0029 132.371 46.7041L132.352 46.5771H130.223L130.232 46.7236C130.408 49.2041 132.498 50.708 135.662 50.708ZM143.895 38.6182C144.588 38.6182 145.125 38.0713 145.125 37.4072C145.125 36.7334 144.588 36.1865 143.895 36.1865C143.211 36.1865 142.664 36.7334 142.664 37.4072C142.664 38.0713 143.211 38.6182 143.895 38.6182ZM142.84 50.4736H144.949V40.2002H142.84V50.4736ZM151.629 54.0967C154.529 54.0967 156.346 52.5342 156.346 50.1904V40.2002H154.227V41.9482H154.178C153.572 40.7861 152.439 40.0049 150.994 40.0049C148.387 40.0049 146.668 42.0264 146.668 45.249V45.2588C146.668 48.4619 148.367 50.4834 150.945 50.4834C152.42 50.4834 153.592 49.7705 154.178 48.6572H154.227V50.0635C154.227 51.499 153.299 52.3975 151.619 52.3975C150.301 52.3975 149.412 51.9482 149.129 51.2939L149.09 51.2158H147L147.01 51.3037C147.322 52.876 148.992 54.0967 151.629 54.0967ZM151.541 48.7646C149.871 48.7646 148.826 47.4365 148.826 45.2881V45.2783C148.826 43.1592 149.871 41.8115 151.541 41.8115C153.143 41.8115 154.227 43.1689 154.227 45.2783V45.2881C154.227 47.4072 153.152 48.7646 151.541 48.7646ZM158.436 50.4736H160.545V44.4873C160.545 42.8857 161.502 41.8115 162.986 41.8115C164.451 41.8115 165.174 42.6807 165.174 44.2236V50.4736H167.293V43.8232C167.293 41.46 165.994 40.0049 163.738 40.0049C162.186 40.0049 161.131 40.708 160.594 41.7529H160.545V40.2002H158.436V50.4736ZM176.893 50.6787C178.455 50.6787 179.5 49.9658 180.037 48.9307H180.086V50.4736H182.205V40.2002H180.086V46.1963C180.086 47.7979 179.129 48.8623 177.645 48.8623C176.18 48.8623 175.457 48.0029 175.457 46.4502V40.2002H173.348V46.8604C173.348 49.2236 174.637 50.6787 176.893 50.6787ZM184.295 53.8916H186.404V48.7451H186.453C187.059 49.9365 188.24 50.6787 189.695 50.6787C192.273 50.6787 193.963 48.6182 193.963 45.3467V45.3369C193.963 42.0557 192.283 40.0049 189.666 40.0049C188.201 40.0049 187.068 40.7471 186.453 41.9678H186.404V40.2002H184.295V53.8916ZM189.119 48.8623C187.527 48.8623 186.395 47.4756 186.395 45.3467V45.3369C186.395 43.1982 187.518 41.8115 189.119 41.8115C190.77 41.8115 191.814 43.1494 191.814 45.3369V45.3467C191.814 47.5146 190.779 48.8623 189.119 48.8623ZM201.688 50.4736H203.865L206.004 42.7783H206.053L208.211 50.4736H210.408L213.221 40.2002H211.131L209.256 48.2861H209.207L207.059 40.2002H205.027L202.889 48.2861H202.85L200.975 40.2002H198.865L201.688 50.4736ZM215.652 38.6182C216.346 38.6182 216.883 38.0713 216.883 37.4072C216.883 36.7334 216.346 36.1865 215.652 36.1865C214.969 36.1865 214.422 36.7334 214.422 37.4072C214.422 38.0713 214.969 38.6182 215.652 38.6182ZM214.598 50.4736H216.707V40.2002H214.598V50.4736ZM222.488 50.6787C222.918 50.6787 223.318 50.6299 223.562 50.5908V48.96C223.406 48.9795 223.221 48.999 222.996 48.999C222.107 48.999 221.639 48.6865 221.639 47.6416V41.8799H223.562V40.2002H221.639V37.5244H219.48V40.2002H218.006V41.8799H219.48V47.7686C219.48 49.8193 220.457 50.6787 222.488 50.6787ZM225.389 50.4736H227.498V44.5264C227.498 42.9248 228.465 41.8115 229.92 41.8115C231.404 41.8115 232.264 42.8271 232.264 44.5264V50.4736H234.373V44.126C234.373 41.6455 232.928 40.0049 230.73 40.0049C229.197 40.0049 228.094 40.6982 227.547 41.8896H227.498V36.3818H225.389V50.4736ZM239.695 50.4736H241.99L243.289 46.665H248.719L250.008 50.4736H252.303L247.186 36.3818H244.822L239.695 50.4736ZM245.984 38.7158H246.023L248.123 44.9072H243.875L245.984 38.7158ZM253.611 53.8916H255.721V48.7451H255.77C256.375 49.9365 257.557 50.6787 259.012 50.6787C261.59 50.6787 263.279 48.6182 263.279 45.3467V45.3369C263.279 42.0557 261.6 40.0049 258.982 40.0049C257.518 40.0049 256.385 40.7471 255.77 41.9678H255.721V40.2002H253.611V53.8916ZM258.436 48.8623C256.844 48.8623 255.711 47.4756 255.711 45.3467V45.3369C255.711 43.1982 256.834 41.8115 258.436 41.8115C260.086 41.8115 261.131 43.1494 261.131 45.3369V45.3467C261.131 47.5146 260.096 48.8623 258.436 48.8623ZM264.92 53.8916H267.029V48.7451H267.078C267.684 49.9365 268.865 50.6787 270.32 50.6787C272.898 50.6787 274.588 48.6182 274.588 45.3467V45.3369C274.588 42.0557 272.908 40.0049 270.291 40.0049C268.826 40.0049 267.693 40.7471 267.078 41.9678H267.029V40.2002H264.92V53.8916ZM269.744 48.8623C268.152 48.8623 267.02 47.4756 267.02 45.3467V45.3369C267.02 43.1982 268.143 41.8115 269.744 41.8115C271.395 41.8115 272.439 43.1494 272.439 45.3369V45.3467C272.439 47.5146 271.404 48.8623 269.744 48.8623ZM276.307 50.4736H278.416V36.3818H276.307V50.4736ZM284.969 50.6787C287.459 50.6787 289.041 49.1943 289.373 47.5635L289.393 47.4561H287.391L287.361 47.5342C287.098 48.3057 286.268 48.9502 285.018 48.9502C283.338 48.9502 282.273 47.8174 282.234 45.874H289.51V45.1611C289.51 42.0752 287.742 40.0049 284.861 40.0049C281.98 40.0049 280.125 42.1533 280.125 45.3662V45.376C280.125 48.6182 281.951 50.6787 284.969 50.6787ZM284.871 41.7334C286.248 41.7334 287.244 42.6025 287.42 44.3799H282.264C282.449 42.6611 283.504 41.7334 284.871 41.7334Z" fill="#1D1C2B"/>
<rect x="30.9121" y="13.4736" width="323.146" height="60" rx="30" stroke="#E0E0E9" shape-rendering="crispEdges"/>
</g>
<defs>
<filter id="filter0_d_427_5581" x="0.412109" y="0.973633" width="384.146" height="121" filterUnits="userSpaceOnUse" color-interpolation-filters="sRGB">
<feFlood flood-opacity="0" result="BackgroundImageFix"/>
<feColorMatrix in="SourceAlpha" type="matrix" values="0 0 0 0 0 0 0 0 0 0 0 0 0 0 0 0 0 0 127 0" result="hardAlpha"/>
<feOffset dy="18"/>
<feGaussianBlur stdDeviation="15"/>
<feComposite in2="hardAlpha" operator="out"/>
<feColorMatrix type="matrix" values="0 0 0 0 0.512832 0 0 0 0 0.468335 0 0 0 0 0.775363 0 0 0 0.11 0"/>
<feBlend mode="normal" in2="BackgroundImageFix" result="effect1_dropShadow_427_5581"/>
<feBlend mode="normal" in="SourceGraphic" in2="effect1_dropShadow_427_5581" result="shape"/>
</filter>
</defs>
</svg>
