<svg width="211" height="61" viewBox="0 0 422 122" fill="none" xmlns="http://www.w3.org/2000/svg">
<g filter="url(#filter0_d_427_5415)">
<rect x="30.4473" y="12.9736" width="361" height="61" rx="30.5" fill="white" shape-rendering="crispEdges"/>
<path d="M105.559 43.4737C105.559 37.1224 100.41 31.9737 94.0586 31.9737C87.7073 31.9737 82.5586 37.1224 82.5586 43.4737C82.5586 49.2137 86.764 53.9713 92.2617 54.834V46.7979H89.3418V43.4737H92.2617V40.9401C92.2617 38.0579 93.9786 36.4659 96.6054 36.4659C97.8636 36.4659 99.1797 36.6905 99.1797 36.6905V39.5206H97.7296C96.301 39.5206 95.8555 40.407 95.8555 41.3165V43.4737H99.0449L98.5351 46.7979H95.8555V54.834C101.353 53.9713 105.559 49.2137 105.559 43.4737Z" fill="#1877F2"/>
<path d="M130.979 39.7492C130.903 39.0769 130.59 38.556 130.041 38.1867C129.492 37.8126 128.8 37.6256 127.967 37.6256C127.371 37.6256 126.854 37.7203 126.419 37.9097C125.983 38.0944 125.645 38.3501 125.403 38.6768C125.166 38.9987 125.048 39.3657 125.048 39.7776C125.048 40.1233 125.129 40.4215 125.29 40.6725C125.455 40.9234 125.671 41.1341 125.936 41.3046C126.206 41.4703 126.495 41.61 126.802 41.7236C127.11 41.8325 127.406 41.9225 127.69 41.9935L129.111 42.3628C129.575 42.4765 130.05 42.6304 130.538 42.8245C131.026 43.0186 131.478 43.2743 131.895 43.5915C132.311 43.9088 132.648 44.3018 132.903 44.7705C133.164 45.2393 133.294 45.8003 133.294 46.4537C133.294 47.2776 133.081 48.0091 132.655 48.6483C132.233 49.2876 131.62 49.7918 130.815 50.1611C130.015 50.5305 129.047 50.7151 127.91 50.7151C126.821 50.7151 125.879 50.5423 125.084 50.1966C124.288 49.851 123.666 49.3609 123.216 48.7265C122.766 48.0873 122.517 47.3297 122.47 46.4537H124.672C124.714 46.9793 124.885 47.4173 125.183 47.7677C125.486 48.1133 125.872 48.3714 126.341 48.5418C126.814 48.7075 127.333 48.7904 127.896 48.7904C128.516 48.7904 129.068 48.6933 129.551 48.4992C130.039 48.3003 130.422 48.0257 130.702 47.6753C130.981 47.3202 131.121 46.9059 131.121 46.4324C131.121 46.0016 130.997 45.6488 130.751 45.3742C130.51 45.0996 130.181 44.8723 129.764 44.6924C129.352 44.5125 128.886 44.3538 128.365 44.2165L126.646 43.7478C125.481 43.4305 124.558 42.9642 123.876 42.3486C123.199 41.7331 122.861 40.9187 122.861 39.9055C122.861 39.0674 123.088 38.3358 123.542 37.7108C123.997 37.0858 124.613 36.6005 125.389 36.2549C126.166 35.9045 127.041 35.7293 128.017 35.7293C129.002 35.7293 129.871 35.9021 130.623 36.2478C131.381 36.5934 131.978 37.0693 132.413 37.6753C132.849 38.2767 133.076 38.968 133.095 39.7492H130.979ZM135.746 50.4736V39.5645H137.869V50.4736H135.746ZM136.818 37.8813C136.449 37.8813 136.132 37.7582 135.867 37.512C135.606 37.261 135.476 36.9627 135.476 36.6171C135.476 36.2667 135.606 35.9684 135.867 35.7222C136.132 35.4713 136.449 35.3458 136.818 35.3458C137.188 35.3458 137.503 35.4713 137.763 35.7222C138.028 35.9684 138.161 36.2667 138.161 36.6171C138.161 36.9627 138.028 37.261 137.763 37.512C137.503 37.7582 137.188 37.8813 136.818 37.8813ZM145.3 54.7918C144.434 54.7918 143.688 54.6782 143.063 54.4509C142.443 54.2236 141.936 53.923 141.543 53.5489C141.15 53.1749 140.857 52.7653 140.662 52.3202L142.488 51.5674C142.616 51.7757 142.786 51.9959 142.999 52.2279C143.217 52.4646 143.51 52.6659 143.88 52.8316C144.254 52.9973 144.734 53.0802 145.322 53.0802C146.126 53.0802 146.792 52.8837 147.317 52.4907C147.843 52.1024 148.106 51.4822 148.106 50.6299V48.485H147.971C147.843 48.717 147.658 48.9751 147.417 49.2591C147.18 49.5432 146.853 49.7894 146.437 49.9978C146.02 50.2061 145.478 50.3103 144.81 50.3103C143.948 50.3103 143.172 50.109 142.481 49.7066C141.794 49.2994 141.25 48.7004 140.847 47.9097C140.449 47.1143 140.251 46.1365 140.251 44.9765C140.251 43.8164 140.447 42.8221 140.84 41.9935C141.238 41.1649 141.782 40.5305 142.474 40.0901C143.165 39.645 143.948 39.4225 144.824 39.4225C145.501 39.4225 146.048 39.5361 146.465 39.7634C146.882 39.9859 147.206 40.2464 147.438 40.5447C147.675 40.843 147.857 41.1057 147.985 41.333H148.141V39.5645H150.222V50.7151C150.222 51.6526 150.004 52.422 149.569 53.0233C149.133 53.6247 148.544 54.0698 147.8 54.3586C147.062 54.6474 146.228 54.7918 145.3 54.7918ZM145.279 48.5489C145.89 48.5489 146.406 48.4069 146.827 48.1228C147.253 47.834 147.575 47.422 147.793 46.887C148.016 46.3472 148.127 45.7009 148.127 44.9481C148.127 44.2142 148.018 43.5679 147.8 43.0091C147.582 42.4504 147.263 42.0148 146.841 41.7023C146.42 41.3851 145.899 41.2265 145.279 41.2265C144.64 41.2265 144.107 41.3922 143.681 41.7236C143.255 42.0503 142.933 42.4954 142.715 43.0589C142.502 43.6223 142.395 44.252 142.395 44.9481C142.395 45.663 142.504 46.2904 142.722 46.8302C142.94 47.3699 143.262 47.7913 143.688 48.0944C144.119 48.3974 144.649 48.5489 145.279 48.5489ZM155.194 43.9964V50.4736H153.07V39.5645H155.108V41.3401H155.243C155.494 40.7625 155.887 40.2984 156.422 39.9481C156.962 39.5977 157.642 39.4225 158.461 39.4225C159.204 39.4225 159.855 39.5787 160.414 39.8912C160.973 40.199 161.406 40.6583 161.714 41.2691C162.021 41.8799 162.175 42.6351 162.175 43.5347V50.4736H160.052V43.7904C160.052 42.9997 159.846 42.3818 159.434 41.9367C159.022 41.4869 158.456 41.262 157.736 41.262C157.244 41.262 156.806 41.3685 156.422 41.5816C156.044 41.7947 155.743 42.1072 155.52 42.5191C155.303 42.9263 155.194 43.4187 155.194 43.9964ZM177.227 45.9495V39.5645H179.357V50.4736H177.269V48.5844H177.156C176.905 49.1668 176.502 49.6521 175.948 50.0404C175.399 50.4239 174.715 50.6157 173.896 50.6157C173.195 50.6157 172.575 50.4618 172.035 50.154C171.5 49.8415 171.079 49.3799 170.771 48.7691C170.468 48.1583 170.316 47.4031 170.316 46.5035V39.5645H172.44V46.2478C172.44 46.9912 172.646 47.583 173.058 48.0233C173.47 48.4637 174.005 48.6839 174.663 48.6839C175.061 48.6839 175.456 48.5844 175.849 48.3856C176.247 48.1867 176.576 47.886 176.836 47.4836C177.101 47.0811 177.231 46.5698 177.227 45.9495ZM182.211 54.5645V39.5645H184.285V41.333H184.462C184.585 41.1057 184.763 40.843 184.995 40.5447C185.227 40.2464 185.549 39.9859 185.961 39.7634C186.373 39.5361 186.917 39.4225 187.594 39.4225C188.475 39.4225 189.261 39.645 189.952 40.0901C190.644 40.5352 191.186 41.1768 191.579 42.0148C191.976 42.8529 192.175 43.8614 192.175 45.0404C192.175 46.2194 191.979 47.2303 191.586 48.0731C191.193 48.9111 190.653 49.5574 189.966 50.012C189.28 50.4618 188.496 50.6867 187.616 50.6867C186.953 50.6867 186.411 50.5754 185.989 50.3529C185.573 50.1304 185.246 49.8699 185.009 49.5716C184.772 49.2733 184.59 49.0082 184.462 48.7762H184.334V54.5645H182.211ZM184.292 45.0191C184.292 45.7861 184.403 46.4585 184.626 47.0361C184.848 47.6138 185.17 48.066 185.591 48.3927C186.013 48.7146 186.529 48.8756 187.14 48.8756C187.774 48.8756 188.305 48.7075 188.731 48.3714C189.157 48.0305 189.479 47.5688 189.697 46.9864C189.919 46.404 190.03 45.7483 190.03 45.0191C190.03 44.2994 189.921 43.6531 189.704 43.0802C189.491 42.5072 189.169 42.0551 188.738 41.7236C188.312 41.3922 187.779 41.2265 187.14 41.2265C186.524 41.2265 186.003 41.3851 185.577 41.7023C185.156 42.0196 184.836 42.4623 184.618 43.0305C184.401 43.5986 184.292 44.2615 184.292 45.0191ZM202.213 50.4736L199.002 39.5645H201.197L203.335 47.5759H203.441L205.586 39.5645H207.781L209.911 47.5404H210.018L212.142 39.5645H214.336L211.133 50.4736H208.967L206.751 42.5972H206.588L204.372 50.4736H202.213ZM216.351 50.4736V39.5645H218.475V50.4736H216.351ZM217.424 37.8813C217.055 37.8813 216.737 37.7582 216.472 37.512C216.212 37.261 216.081 36.9627 216.081 36.6171C216.081 36.2667 216.212 35.9684 216.472 35.7222C216.737 35.4713 217.055 35.3458 217.424 35.3458C217.793 35.3458 218.108 35.4713 218.368 35.7222C218.634 35.9684 218.766 36.2667 218.766 36.6171C218.766 36.9627 218.634 37.261 218.368 37.512C218.108 37.7582 217.793 37.8813 217.424 37.8813ZM226.424 39.5645V41.2691H220.465V39.5645H226.424ZM222.063 36.9509H224.187V47.2705C224.187 47.6824 224.249 47.9926 224.372 48.2009C224.495 48.4045 224.653 48.5442 224.847 48.6199C225.046 48.691 225.262 48.7265 225.494 48.7265C225.664 48.7265 225.813 48.7146 225.941 48.691C226.069 48.6673 226.169 48.6483 226.24 48.6341L226.623 50.3884C226.5 50.4358 226.325 50.4831 226.097 50.5305C225.87 50.5825 225.586 50.6109 225.245 50.6157C224.686 50.6251 224.166 50.5257 223.683 50.3174C223.2 50.109 222.809 49.7871 222.511 49.3515C222.213 48.9159 222.063 48.369 222.063 47.7108V36.9509ZM231.131 43.9964V50.4736H229.008V35.9282H231.103V41.3401H231.238C231.493 40.753 231.884 40.2866 232.41 39.941C232.935 39.5953 233.622 39.4225 234.469 39.4225C235.217 39.4225 235.871 39.5764 236.43 39.8841C236.993 40.1919 237.429 40.6512 237.736 41.262C238.049 41.868 238.205 42.6256 238.205 43.5347V50.4736H236.081V43.7904C236.081 42.9902 235.876 42.3699 235.464 41.9296C235.052 41.4845 234.479 41.262 233.745 41.262C233.243 41.262 232.793 41.3685 232.395 41.5816C232.002 41.7947 231.692 42.1072 231.465 42.5191C231.242 42.9263 231.131 43.4187 231.131 43.9964ZM246.502 50.4736V35.9282H255.522V37.8174H248.697V42.2492H254.876V44.1313H248.697V50.4736H246.502ZM261.186 50.7151C260.495 50.7151 259.87 50.5873 259.311 50.3316C258.753 50.0712 258.31 49.6948 257.983 49.2023C257.661 48.7099 257.5 48.1062 257.5 47.3912C257.5 46.7757 257.619 46.2691 257.855 45.8714C258.092 45.4736 258.412 45.1588 258.814 44.9268C259.217 44.6948 259.666 44.5196 260.164 44.4012C260.661 44.2828 261.167 44.1929 261.683 44.1313C262.337 44.0555 262.867 43.994 263.274 43.9466C263.682 43.8946 263.977 43.8117 264.162 43.6981C264.347 43.5844 264.439 43.3998 264.439 43.1441V43.0944C264.439 42.4741 264.264 41.9935 263.914 41.6526C263.568 41.3117 263.052 41.1412 262.365 41.1412C261.65 41.1412 261.087 41.2999 260.675 41.6171C260.268 41.9296 259.986 42.2776 259.83 42.6611L257.834 42.2066C258.071 41.5437 258.416 41.0087 258.871 40.6015C259.33 40.1895 259.858 39.8912 260.455 39.7066C261.051 39.5172 261.679 39.4225 262.337 39.4225C262.772 39.4225 263.234 39.4746 263.722 39.5787C264.214 39.6782 264.673 39.8628 265.1 40.1327C265.53 40.4026 265.883 40.7885 266.158 41.2904C266.432 41.7876 266.57 42.4339 266.57 43.2293V50.4736H264.496V48.9822H264.411C264.273 49.2568 264.067 49.5267 263.793 49.7918C263.518 50.057 263.165 50.2771 262.735 50.4523C262.304 50.6275 261.788 50.7151 261.186 50.7151ZM261.648 49.0106C262.235 49.0106 262.737 48.8946 263.154 48.6626C263.575 48.4305 263.895 48.1275 264.112 47.7535C264.335 47.3747 264.446 46.9698 264.446 46.539V45.1327C264.37 45.2085 264.224 45.2795 264.006 45.3458C263.793 45.4073 263.549 45.4618 263.274 45.5091C263 45.5518 262.732 45.592 262.472 45.6299C262.211 45.663 261.994 45.6914 261.818 45.7151C261.406 45.7672 261.03 45.8548 260.689 45.9779C260.353 46.101 260.083 46.2786 259.879 46.5106C259.681 46.7378 259.581 47.0409 259.581 47.4197C259.581 47.9452 259.775 48.343 260.164 48.6128C260.552 48.878 261.047 49.0106 261.648 49.0106ZM273.993 50.6938C272.938 50.6938 272.028 50.4547 271.266 49.9765C270.509 49.4935 269.926 48.8283 269.519 47.9807C269.112 47.1332 268.908 46.1626 268.908 45.0688C268.908 43.9608 269.117 42.9831 269.533 42.1356C269.95 41.2833 270.537 40.618 271.295 40.1398C272.052 39.6616 272.945 39.4225 273.972 39.4225C274.801 39.4225 275.539 39.5764 276.188 39.8841C276.837 40.1872 277.36 40.6133 277.758 41.1626C278.16 41.7118 278.399 42.3534 278.475 43.0873H276.408C276.295 42.5759 276.034 42.1356 275.627 41.7662C275.224 41.3969 274.685 41.2123 274.008 41.2123C273.416 41.2123 272.897 41.3685 272.452 41.681C272.012 41.9888 271.669 42.4291 271.422 43.002C271.176 43.5702 271.053 44.2426 271.053 45.0191C271.053 45.8145 271.174 46.5011 271.415 47.0787C271.657 47.6564 271.998 48.1038 272.438 48.4211C272.883 48.7383 273.406 48.8969 274.008 48.8969C274.41 48.8969 274.775 48.8235 275.101 48.6768C275.433 48.5252 275.71 48.3098 275.932 48.0305C276.16 47.7511 276.318 47.4149 276.408 47.0219H278.475C278.399 47.7274 278.17 48.3572 277.786 48.9111C277.403 49.4651 276.889 49.9007 276.245 50.218C275.606 50.5352 274.855 50.6938 273.993 50.6938ZM285.448 50.6938C284.373 50.6938 283.447 50.4642 282.671 50.0049C281.899 49.5409 281.302 48.8898 280.881 48.0518C280.464 47.209 280.256 46.2217 280.256 45.0901C280.256 43.9727 280.464 42.9878 280.881 42.1356C281.302 41.2833 281.889 40.618 282.642 40.1398C283.4 39.6616 284.285 39.4225 285.298 39.4225C285.914 39.4225 286.511 39.5243 287.088 39.7279C287.666 39.9315 288.184 40.2511 288.644 40.6867C289.103 41.1223 289.465 41.6881 289.73 42.3841C289.995 43.0754 290.128 43.9159 290.128 44.9055V45.6583H281.456V44.0674H288.047C288.047 43.5087 287.933 43.0139 287.706 42.583C287.479 42.1474 287.159 41.8041 286.747 41.5532C286.34 41.3022 285.862 41.1768 285.313 41.1768C284.716 41.1768 284.195 41.3235 283.75 41.6171C283.31 41.9059 282.969 42.2847 282.727 42.7535C282.491 43.2175 282.372 43.7217 282.372 44.2662V45.5091C282.372 46.2383 282.5 46.8586 282.756 47.3699C283.016 47.8813 283.378 48.2719 283.843 48.5418C284.307 48.807 284.849 48.9395 285.469 48.9395C285.871 48.9395 286.238 48.8827 286.57 48.7691C286.901 48.6507 287.188 48.4755 287.429 48.2435C287.671 48.0115 287.855 47.7251 287.983 47.3841L289.993 47.7464C289.832 48.3382 289.543 48.8567 289.127 49.3018C288.715 49.7421 288.196 50.0854 287.571 50.3316C286.951 50.5731 286.243 50.6938 285.448 50.6938ZM292.655 50.4736V35.9282H294.778V41.333H294.906C295.029 41.1057 295.207 40.843 295.439 40.5447C295.671 40.2464 295.993 39.9859 296.405 39.7634C296.817 39.5361 297.361 39.4225 298.038 39.4225C298.919 39.4225 299.705 39.645 300.396 40.0901C301.087 40.5352 301.63 41.1768 302.023 42.0148C302.42 42.8529 302.619 43.8614 302.619 45.0404C302.619 46.2194 302.423 47.2303 302.03 48.0731C301.637 48.9111 301.097 49.5574 300.41 50.012C299.724 50.4618 298.94 50.6867 298.059 50.6867C297.397 50.6867 296.854 50.5754 296.433 50.3529C296.016 50.1304 295.69 49.8699 295.453 49.5716C295.216 49.2733 295.034 49.0082 294.906 48.7762H294.729V50.4736H292.655ZM294.736 45.0191C294.736 45.7861 294.847 46.4585 295.069 47.0361C295.292 47.6138 295.614 48.066 296.035 48.3927C296.457 48.7146 296.973 48.8756 297.584 48.8756C298.218 48.8756 298.748 48.7075 299.175 48.3714C299.601 48.0305 299.923 47.5688 300.14 46.9864C300.363 46.404 300.474 45.7483 300.474 45.0191C300.474 44.2994 300.365 43.6531 300.148 43.0802C299.934 42.5072 299.613 42.0551 299.182 41.7236C298.756 41.3922 298.223 41.2265 297.584 41.2265C296.968 41.2265 296.447 41.3851 296.021 41.7023C295.6 42.0196 295.28 42.4623 295.062 43.0305C294.845 43.5986 294.736 44.2615 294.736 45.0191ZM309.599 50.6938C308.576 50.6938 307.684 50.4594 306.921 49.9907C306.159 49.5219 305.567 48.8662 305.146 48.0233C304.724 47.1805 304.514 46.1957 304.514 45.0688C304.514 43.9372 304.724 42.9476 305.146 42.1001C305.567 41.2525 306.159 40.5944 306.921 40.1256C307.684 39.6569 308.576 39.4225 309.599 39.4225C310.622 39.4225 311.514 39.6569 312.276 40.1256C313.039 40.5944 313.631 41.2525 314.052 42.1001C314.473 42.9476 314.684 43.9372 314.684 45.0688C314.684 46.1957 314.473 47.1805 314.052 48.0233C313.631 48.8662 313.039 49.5219 312.276 49.9907C311.514 50.4594 310.622 50.6938 309.599 50.6938ZM309.606 48.9111C310.269 48.9111 310.818 48.7359 311.254 48.3856C311.689 48.0352 312.011 47.5688 312.22 46.9864C312.433 46.404 312.539 45.7625 312.539 45.0617C312.539 44.3657 312.433 43.7265 312.22 43.1441C312.011 42.557 311.689 42.0858 311.254 41.7307C310.818 41.3756 310.269 41.1981 309.606 41.1981C308.938 41.1981 308.384 41.3756 307.944 41.7307C307.508 42.0858 307.184 42.557 306.971 43.1441C306.763 43.7265 306.659 44.3657 306.659 45.0617C306.659 45.7625 306.763 46.404 306.971 46.9864C307.184 47.5688 307.508 48.0352 307.944 48.3856C308.384 48.7359 308.938 48.9111 309.606 48.9111ZM321.65 50.6938C320.627 50.6938 319.734 50.4594 318.972 49.9907C318.21 49.5219 317.618 48.8662 317.197 48.0233C316.775 47.1805 316.564 46.1957 316.564 45.0688C316.564 43.9372 316.775 42.9476 317.197 42.1001C317.618 41.2525 318.21 40.5944 318.972 40.1256C319.734 39.6569 320.627 39.4225 321.65 39.4225C322.672 39.4225 323.565 39.6569 324.327 40.1256C325.09 40.5944 325.681 41.2525 326.103 42.1001C326.524 42.9476 326.735 43.9372 326.735 45.0688C326.735 46.1957 326.524 47.1805 326.103 48.0233C325.681 48.8662 325.09 49.5219 324.327 49.9907C323.565 50.4594 322.672 50.6938 321.65 50.6938ZM321.657 48.9111C322.32 48.9111 322.869 48.7359 323.305 48.3856C323.74 48.0352 324.062 47.5688 324.27 46.9864C324.483 46.404 324.59 45.7625 324.59 45.0617C324.59 44.3657 324.483 43.7265 324.27 43.1441C324.062 42.557 323.74 42.0858 323.305 41.7307C322.869 41.3756 322.32 41.1981 321.657 41.1981C320.989 41.1981 320.435 41.3756 319.995 41.7307C319.559 42.0858 319.235 42.557 319.022 43.1441C318.814 43.7265 318.709 44.3657 318.709 45.0617C318.709 45.7625 318.814 46.404 319.022 46.9864C319.235 47.5688 319.559 48.0352 319.995 48.3856C320.435 48.7359 320.989 48.9111 321.657 48.9111ZM331.058 46.7733L331.044 44.181H331.414L335.76 39.5645H338.303L333.345 44.8202H333.012L331.058 46.7733ZM329.105 50.4736V35.9282H331.229V50.4736H329.105ZM335.994 50.4736L332.088 45.289L333.551 43.8046L338.601 50.4736H335.994Z" fill="#1D1C2B"/>
<rect x="30.9473" y="13.4736" width="360" height="60" rx="30" stroke="#E0E0E9" shape-rendering="crispEdges"/>
</g>
<defs>
<filter id="filter0_d_427_5415" x="0.447266" y="0.973633" width="421" height="121" filterUnits="userSpaceOnUse" color-interpolation-filters="sRGB">
<feFlood flood-opacity="0" result="BackgroundImageFix"/>
<feColorMatrix in="SourceAlpha" type="matrix" values="0 0 0 0 0 0 0 0 0 0 0 0 0 0 0 0 0 0 127 0" result="hardAlpha"/>
<feOffset dy="18"/>
<feGaussianBlur stdDeviation="15"/>
<feComposite in2="hardAlpha" operator="out"/>
<feColorMatrix type="matrix" values="0 0 0 0 0.512832 0 0 0 0 0.468335 0 0 0 0 0.775363 0 0 0 0.11 0"/>
<feBlend mode="normal" in2="BackgroundImageFix" result="effect1_dropShadow_427_5415"/>
<feBlend mode="normal" in="SourceGraphic" in2="effect1_dropShadow_427_5415" result="shape"/>
</filter>
</defs>
</svg>
