<svg width="198" height="61" viewBox="0 0 396 122" fill="none" xmlns="http://www.w3.org/2000/svg">
<g filter="url(#filter0_d_427_5012)">
<rect x="30.082" y="12.7236" width="335" height="61" rx="30.5" fill="white" shape-rendering="crispEdges"/>
<path fill-rule="evenodd" clip-rule="evenodd" d="M104.622 43.4851C104.622 42.6696 104.549 41.8855 104.413 41.1328H93.582V45.5812H99.7711C99.5045 47.0187 98.6943 48.2367 97.4763 49.0521V51.9376H101.193C103.367 49.9355 104.622 46.9874 104.622 43.4851Z" fill="#4285F4"/>
<path fill-rule="evenodd" clip-rule="evenodd" d="M93.5815 54.7232C96.6865 54.7232 99.2897 53.6934 101.192 51.9371L97.4758 49.0516C96.4461 49.7416 95.1288 50.1493 93.5815 50.1493C90.5863 50.1493 88.0511 48.1264 87.1467 45.4082H83.3047V48.3877C85.197 52.1462 89.0861 54.7232 93.5815 54.7232Z" fill="#34A853"/>
<path fill-rule="evenodd" clip-rule="evenodd" d="M87.1473 45.4091C86.9173 44.7191 86.7866 43.9821 86.7866 43.2241C86.7866 42.4662 86.9173 41.7291 87.1473 41.0391V38.0596H83.3052C82.5263 39.6121 82.082 41.3684 82.082 43.2241C82.082 45.0798 82.5263 46.8362 83.3052 48.3887L87.1473 45.4091Z" fill="#FBBC05"/>
<path fill-rule="evenodd" clip-rule="evenodd" d="M93.5815 36.2975C95.2699 36.2975 96.7858 36.8777 97.9776 38.0173L101.276 34.7189C99.2845 32.8632 96.6813 31.7236 93.5815 31.7236C89.0861 31.7236 85.197 34.3007 83.3047 38.0591L87.1467 41.0386C88.0511 38.3205 90.5863 36.2975 93.5815 36.2975Z" fill="#EA4335"/>
<path d="M130.613 39.4992C130.538 38.8269 130.225 38.306 129.676 37.9367C129.127 37.5626 128.435 37.3756 127.602 37.3756C127.005 37.3756 126.489 37.4703 126.054 37.6597C125.618 37.8444 125.279 38.1001 125.038 38.4268C124.801 38.7487 124.683 39.1157 124.683 39.5276C124.683 39.8733 124.763 40.1715 124.924 40.4225C125.09 40.6734 125.306 40.8841 125.571 41.0546C125.841 41.2203 126.129 41.36 126.437 41.4736C126.745 41.5825 127.041 41.6725 127.325 41.7435L128.745 42.1128C129.209 42.2265 129.685 42.3804 130.173 42.5745C130.661 42.7686 131.113 43.0243 131.529 43.3415C131.946 43.6588 132.282 44.0518 132.538 44.5205C132.798 44.9893 132.929 45.5503 132.929 46.2037C132.929 47.0276 132.716 47.7591 132.289 48.3983C131.868 49.0376 131.255 49.5418 130.45 49.9111C129.65 50.2805 128.681 50.4651 127.545 50.4651C126.456 50.4651 125.514 50.2923 124.718 49.9466C123.923 49.601 123.3 49.1109 122.85 48.4765C122.401 47.8373 122.152 47.0797 122.105 46.2037H124.306C124.349 46.7293 124.52 47.1673 124.818 47.5177C125.121 47.8633 125.507 48.1214 125.975 48.2918C126.449 48.4575 126.967 48.5404 127.531 48.5404C128.151 48.5404 128.703 48.4433 129.186 48.2492C129.673 48.0503 130.057 47.7757 130.336 47.4253C130.616 47.0702 130.755 46.6559 130.755 46.1824C130.755 45.7516 130.632 45.3988 130.386 45.1242C130.145 44.8496 129.815 44.6223 129.399 44.4424C128.987 44.2625 128.52 44.1038 128 43.9665L126.281 43.4978C125.116 43.1805 124.193 42.7142 123.511 42.0986C122.834 41.4831 122.495 40.6687 122.495 39.6555C122.495 38.8174 122.723 38.0858 123.177 37.4608C123.632 36.8358 124.247 36.3505 125.024 36.0049C125.8 35.6545 126.676 35.4793 127.652 35.4793C128.636 35.4793 129.505 35.6521 130.258 35.9978C131.016 36.3434 131.612 36.8193 132.048 37.4253C132.484 38.0267 132.711 38.718 132.73 39.4992H130.613ZM135.381 50.2236V39.3145H137.504V50.2236H135.381ZM136.453 37.6313C136.084 37.6313 135.767 37.5082 135.501 37.262C135.241 37.011 135.111 36.7127 135.111 36.3671C135.111 36.0167 135.241 35.7184 135.501 35.4722C135.767 35.2213 136.084 35.0958 136.453 35.0958C136.822 35.0958 137.137 35.2213 137.398 35.4722C137.663 35.7184 137.795 36.0167 137.795 36.3671C137.795 36.7127 137.663 37.011 137.398 37.262C137.137 37.5082 136.822 37.6313 136.453 37.6313ZM144.935 54.5418C144.069 54.5418 143.323 54.4282 142.698 54.2009C142.078 53.9736 141.571 53.673 141.178 53.2989C140.785 52.9249 140.491 52.5153 140.297 52.0702L142.123 51.3174C142.25 51.5257 142.421 51.7459 142.634 51.9779C142.852 52.2146 143.145 52.4159 143.515 52.5816C143.889 52.7473 144.369 52.8302 144.956 52.8302C145.761 52.8302 146.426 52.6337 146.952 52.2407C147.478 51.8524 147.74 51.2322 147.74 50.3799V48.235H147.605C147.478 48.467 147.293 48.7251 147.051 49.0091C146.815 49.2932 146.488 49.5394 146.071 49.7478C145.655 49.9561 145.113 50.0603 144.445 50.0603C143.583 50.0603 142.807 49.859 142.115 49.4566C141.429 49.0494 140.884 48.4504 140.482 47.6597C140.084 46.8643 139.885 45.8865 139.885 44.7265C139.885 43.5664 140.082 42.5721 140.475 41.7435C140.873 40.9149 141.417 40.2805 142.108 39.8401C142.8 39.395 143.583 39.1725 144.459 39.1725C145.136 39.1725 145.683 39.2861 146.1 39.5134C146.516 39.7359 146.841 39.9964 147.073 40.2947C147.31 40.593 147.492 40.8557 147.62 41.083H147.776V39.3145H149.857V50.4651C149.857 51.4026 149.639 52.172 149.203 52.7733C148.768 53.3747 148.178 53.8198 147.435 54.1086C146.696 54.3974 145.863 54.5418 144.935 54.5418ZM144.914 48.2989C145.525 48.2989 146.041 48.1569 146.462 47.8728C146.888 47.584 147.21 47.172 147.428 46.637C147.65 46.0972 147.762 45.4509 147.762 44.6981C147.762 43.9642 147.653 43.3179 147.435 42.7591C147.217 42.2004 146.898 41.7648 146.476 41.4523C146.055 41.1351 145.534 40.9765 144.914 40.9765C144.275 40.9765 143.742 41.1422 143.316 41.4736C142.89 41.8003 142.568 42.2454 142.35 42.8089C142.137 43.3723 142.03 44.002 142.03 44.6981C142.03 45.413 142.139 46.0404 142.357 46.5802C142.575 47.1199 142.897 47.5413 143.323 47.8444C143.754 48.1474 144.284 48.2989 144.914 48.2989ZM154.828 43.7464V50.2236H152.705V39.3145H154.743V41.0901H154.878C155.129 40.5125 155.522 40.0484 156.057 39.6981C156.597 39.3477 157.276 39.1725 158.096 39.1725C158.839 39.1725 159.49 39.3287 160.049 39.6412C160.607 39.949 161.041 40.4083 161.348 41.0191C161.656 41.6299 161.81 42.3851 161.81 43.2847V50.2236H159.686V43.5404C159.686 42.7497 159.48 42.1318 159.069 41.6867C158.657 41.2369 158.091 41.012 157.371 41.012C156.879 41.012 156.441 41.1185 156.057 41.3316C155.678 41.5447 155.378 41.8572 155.155 42.2691C154.937 42.6763 154.828 43.1687 154.828 43.7464ZM176.862 45.6995V39.3145H178.992V50.2236H176.904V48.3344H176.79C176.54 48.9168 176.137 49.4021 175.583 49.7904C175.034 50.1739 174.35 50.3657 173.531 50.3657C172.83 50.3657 172.21 50.2118 171.67 49.904C171.135 49.5915 170.713 49.1299 170.406 48.5191C170.103 47.9083 169.951 47.1531 169.951 46.2535V39.3145H172.075V45.9978C172.075 46.7412 172.281 47.333 172.692 47.7733C173.104 48.2137 173.639 48.4339 174.298 48.4339C174.695 48.4339 175.091 48.3344 175.484 48.1356C175.881 47.9367 176.21 47.636 176.471 47.2336C176.736 46.8311 176.866 46.3198 176.862 45.6995ZM181.846 54.3145V39.3145H183.919V41.083H184.097C184.22 40.8557 184.398 40.593 184.63 40.2947C184.862 39.9964 185.184 39.7359 185.596 39.5134C186.007 39.2861 186.552 39.1725 187.229 39.1725C188.11 39.1725 188.896 39.395 189.587 39.8401C190.278 40.2852 190.82 40.9268 191.213 41.7648C191.611 42.6029 191.81 43.6114 191.81 44.7904C191.81 45.9694 191.614 46.9803 191.221 47.8231C190.828 48.6611 190.288 49.3074 189.601 49.762C188.915 50.2118 188.131 50.4367 187.25 50.4367C186.587 50.4367 186.045 50.3254 185.624 50.1029C185.207 49.8804 184.881 49.6199 184.644 49.3216C184.407 49.0233 184.225 48.7582 184.097 48.5262H183.969V54.3145H181.846ZM183.926 44.7691C183.926 45.5361 184.038 46.2085 184.26 46.7861C184.483 47.3638 184.805 47.816 185.226 48.1427C185.648 48.4646 186.164 48.6256 186.775 48.6256C187.409 48.6256 187.939 48.4575 188.365 48.1214C188.792 47.7805 189.114 47.3188 189.331 46.7364C189.554 46.154 189.665 45.4983 189.665 44.7691C189.665 44.0494 189.556 43.4031 189.338 42.8302C189.125 42.2572 188.803 41.8051 188.373 41.4736C187.946 41.1422 187.414 40.9765 186.775 40.9765C186.159 40.9765 185.638 41.1351 185.212 41.4523C184.791 41.7696 184.471 42.2123 184.253 42.7805C184.035 43.3486 183.926 44.0115 183.926 44.7691ZM201.847 50.2236L198.637 39.3145H200.832L202.969 47.3259H203.076L205.221 39.3145H207.415L209.546 47.2904H209.653L211.776 39.3145H213.971L210.768 50.2236H208.602L206.386 42.3472H206.222L204.006 50.2236H201.847ZM215.986 50.2236V39.3145H218.11V50.2236H215.986ZM217.059 37.6313C216.689 37.6313 216.372 37.5082 216.107 37.262C215.846 37.011 215.716 36.7127 215.716 36.3671C215.716 36.0167 215.846 35.7184 216.107 35.4722C216.372 35.2213 216.689 35.0958 217.059 35.0958C217.428 35.0958 217.743 35.2213 218.003 35.4722C218.268 35.7184 218.401 36.0167 218.401 36.3671C218.401 36.7127 218.268 37.011 218.003 37.262C217.743 37.5082 217.428 37.6313 217.059 37.6313ZM226.059 39.3145V41.0191H220.1V39.3145H226.059ZM221.698 36.7009H223.822V47.0205C223.822 47.4324 223.883 47.7426 224.006 47.9509C224.129 48.1545 224.288 48.2942 224.482 48.3699C224.681 48.441 224.897 48.4765 225.129 48.4765C225.299 48.4765 225.448 48.4646 225.576 48.441C225.704 48.4173 225.803 48.3983 225.874 48.3841L226.258 50.1384C226.135 50.1858 225.96 50.2331 225.732 50.2805C225.505 50.3325 225.221 50.3609 224.88 50.3657C224.321 50.3751 223.8 50.2757 223.317 50.0674C222.835 49.859 222.444 49.5371 222.146 49.1015C221.847 48.6659 221.698 48.119 221.698 47.4608V36.7009ZM230.766 43.7464V50.2236H228.642V35.6782H230.738V41.0901H230.873C231.128 40.503 231.519 40.0366 232.044 39.691C232.57 39.3453 233.257 39.1725 234.104 39.1725C234.852 39.1725 235.506 39.3264 236.064 39.6341C236.628 39.9419 237.063 40.4012 237.371 41.012C237.684 41.618 237.84 42.3756 237.84 43.2847V50.2236H235.716V43.5404C235.716 42.7402 235.51 42.1199 235.098 41.6796C234.686 41.2345 234.114 41.012 233.38 41.012C232.878 41.012 232.428 41.1185 232.03 41.3316C231.637 41.5447 231.327 41.8572 231.1 42.2691C230.877 42.6763 230.766 43.1687 230.766 43.7464ZM255.981 40.2733C255.844 39.8425 255.659 39.4566 255.427 39.1157C255.2 38.77 254.927 38.4765 254.61 38.235C254.293 37.9888 253.931 37.8018 253.523 37.6739C253.121 37.5461 252.678 37.4822 252.195 37.4822C251.376 37.4822 250.638 37.6929 249.979 38.1143C249.321 38.5357 248.8 39.1536 248.417 39.968C248.038 40.7776 247.849 41.7696 247.849 42.9438C247.849 44.1228 248.04 45.1195 248.424 45.9339C248.808 46.7483 249.333 47.3662 250.001 47.7876C250.668 48.209 251.428 48.4197 252.281 48.4197C253.071 48.4197 253.76 48.2587 254.347 47.9367C254.939 47.6147 255.396 47.1602 255.718 46.5731C256.045 45.9812 256.208 45.2852 256.208 44.485L256.776 44.5915H252.614V42.7805H258.332V44.4353C258.332 45.6569 258.071 46.7175 257.55 47.6171C257.034 48.512 256.319 49.2033 255.406 49.691C254.496 50.1787 253.455 50.4225 252.281 50.4225C250.964 50.4225 249.809 50.1195 248.815 49.5134C247.825 48.9073 247.053 48.048 246.499 46.9353C245.945 45.8179 245.668 44.4921 245.668 42.958C245.668 41.798 245.829 40.7563 246.151 39.833C246.473 38.9097 246.925 38.1261 247.508 37.4822C248.095 36.8335 248.784 36.3387 249.575 35.9978C250.37 35.6521 251.239 35.4793 252.181 35.4793C252.967 35.4793 253.699 35.5953 254.376 35.8273C255.058 36.0593 255.664 36.3884 256.194 36.8145C256.729 37.2407 257.172 37.7473 257.522 38.3344C257.872 38.9168 258.109 39.5631 258.232 40.2733H255.981ZM265.542 50.4438C264.52 50.4438 263.627 50.2094 262.865 49.7407C262.102 49.2719 261.511 48.6162 261.089 47.7733C260.668 46.9305 260.457 45.9457 260.457 44.8188C260.457 43.6872 260.668 42.6976 261.089 41.8501C261.511 41.0025 262.102 40.3444 262.865 39.8756C263.627 39.4069 264.52 39.1725 265.542 39.1725C266.565 39.1725 267.458 39.4069 268.22 39.8756C268.982 40.3444 269.574 41.0025 269.995 41.8501C270.417 42.6976 270.627 43.6872 270.627 44.8188C270.627 45.9457 270.417 46.9305 269.995 47.7733C269.574 48.6162 268.982 49.2719 268.22 49.7407C267.458 50.2094 266.565 50.4438 265.542 50.4438ZM265.549 48.6611C266.212 48.6611 266.761 48.4859 267.197 48.1356C267.633 47.7852 267.955 47.3188 268.163 46.7364C268.376 46.154 268.483 45.5125 268.483 44.8117C268.483 44.1157 268.376 43.4765 268.163 42.8941C267.955 42.307 267.633 41.8358 267.197 41.4807C266.761 41.1256 266.212 40.9481 265.549 40.9481C264.882 40.9481 264.328 41.1256 263.887 41.4807C263.452 41.8358 263.127 42.307 262.914 42.8941C262.706 43.4765 262.602 44.1157 262.602 44.8117C262.602 45.5125 262.706 46.154 262.914 46.7364C263.127 47.3188 263.452 47.7852 263.887 48.1356C264.328 48.4859 264.882 48.6611 265.549 48.6611ZM277.593 50.4438C276.57 50.4438 275.678 50.2094 274.915 49.7407C274.153 49.2719 273.561 48.6162 273.14 47.7733C272.719 46.9305 272.508 45.9457 272.508 44.8188C272.508 43.6872 272.719 42.6976 273.14 41.8501C273.561 41.0025 274.153 40.3444 274.915 39.8756C275.678 39.4069 276.57 39.1725 277.593 39.1725C278.616 39.1725 279.508 39.4069 280.271 39.8756C281.033 40.3444 281.625 41.0025 282.046 41.8501C282.468 42.6976 282.678 43.6872 282.678 44.8188C282.678 45.9457 282.468 46.9305 282.046 47.7733C281.625 48.6162 281.033 49.2719 280.271 49.7407C279.508 50.2094 278.616 50.4438 277.593 50.4438ZM277.6 48.6611C278.263 48.6611 278.812 48.4859 279.248 48.1356C279.683 47.7852 280.005 47.3188 280.214 46.7364C280.427 46.154 280.533 45.5125 280.533 44.8117C280.533 44.1157 280.427 43.4765 280.214 42.8941C280.005 42.307 279.683 41.8358 279.248 41.4807C278.812 41.1256 278.263 40.9481 277.6 40.9481C276.933 40.9481 276.379 41.1256 275.938 41.4807C275.503 41.8358 275.178 42.307 274.965 42.8941C274.757 43.4765 274.653 44.1157 274.653 44.8117C274.653 45.5125 274.757 46.154 274.965 46.7364C275.178 47.3188 275.503 47.7852 275.938 48.1356C276.379 48.4859 276.933 48.6611 277.6 48.6611ZM289.623 54.5418C288.756 54.5418 288.01 54.4282 287.385 54.2009C286.765 53.9736 286.258 53.673 285.865 53.2989C285.472 52.9249 285.179 52.5153 284.985 52.0702L286.81 51.3174C286.938 51.5257 287.108 51.7459 287.321 51.9779C287.539 52.2146 287.833 52.4159 288.202 52.5816C288.576 52.7473 289.057 52.8302 289.644 52.8302C290.449 52.8302 291.114 52.6337 291.64 52.2407C292.165 51.8524 292.428 51.2322 292.428 50.3799V48.235H292.293C292.165 48.467 291.98 48.7251 291.739 49.0091C291.502 49.2932 291.176 49.5394 290.759 49.7478C290.342 49.9561 289.8 50.0603 289.132 50.0603C288.271 50.0603 287.494 49.859 286.803 49.4566C286.116 49.0494 285.572 48.4504 285.169 47.6597C284.772 46.8643 284.573 45.8865 284.573 44.7265C284.573 43.5664 284.769 42.5721 285.162 41.7435C285.56 40.9149 286.105 40.2805 286.796 39.8401C287.487 39.395 288.271 39.1725 289.147 39.1725C289.824 39.1725 290.371 39.2861 290.787 39.5134C291.204 39.7359 291.528 39.9964 291.76 40.2947C291.997 40.593 292.179 40.8557 292.307 41.083H292.463V39.3145H294.544V50.4651C294.544 51.4026 294.327 52.172 293.891 52.7733C293.455 53.3747 292.866 53.8198 292.123 54.1086C291.384 54.3974 290.551 54.5418 289.623 54.5418ZM289.601 48.2989C290.212 48.2989 290.728 48.1569 291.15 47.8728C291.576 47.584 291.898 47.172 292.115 46.637C292.338 46.0972 292.449 45.4509 292.449 44.6981C292.449 43.9642 292.34 43.3179 292.123 42.7591C291.905 42.2004 291.585 41.7648 291.164 41.4523C290.742 41.1351 290.221 40.9765 289.601 40.9765C288.962 40.9765 288.429 41.1422 288.003 41.4736C287.577 41.8003 287.255 42.2454 287.037 42.8089C286.824 43.3723 286.718 44.002 286.718 44.6981C286.718 45.413 286.827 46.0404 287.044 46.5802C287.262 47.1199 287.584 47.5413 288.01 47.8444C288.441 48.1474 288.971 48.2989 289.601 48.2989ZM299.516 35.6782V50.2236H297.392V35.6782H299.516ZM307.075 50.4438C306 50.4438 305.074 50.2142 304.298 49.7549C303.526 49.2909 302.929 48.6398 302.508 47.8018C302.091 46.959 301.883 45.9717 301.883 44.8401C301.883 43.7227 302.091 42.7378 302.508 41.8856C302.929 41.0333 303.516 40.368 304.269 39.8898C305.027 39.4116 305.912 39.1725 306.925 39.1725C307.541 39.1725 308.138 39.2743 308.715 39.4779C309.293 39.6815 309.811 40.0011 310.271 40.4367C310.73 40.8723 311.092 41.4381 311.357 42.1341C311.622 42.8254 311.755 43.6659 311.755 44.6555V45.4083H303.083V43.8174H309.674C309.674 43.2587 309.56 42.7639 309.333 42.333C309.106 41.8974 308.786 41.5541 308.374 41.3032C307.967 41.0522 307.489 40.9268 306.94 40.9268C306.343 40.9268 305.822 41.0735 305.377 41.3671C304.937 41.6559 304.596 42.0347 304.354 42.5035C304.118 42.9675 303.999 43.4717 303.999 44.0162V45.2591C303.999 45.9883 304.127 46.6086 304.383 47.1199C304.643 47.6313 305.005 48.0219 305.469 48.2918C305.933 48.557 306.476 48.6895 307.096 48.6895C307.498 48.6895 307.865 48.6327 308.197 48.5191C308.528 48.4007 308.815 48.2255 309.056 47.9935C309.298 47.7615 309.482 47.4751 309.61 47.1341L311.62 47.4964C311.459 48.0882 311.17 48.6067 310.754 49.0518C310.342 49.4921 309.823 49.8354 309.198 50.0816C308.578 50.3231 307.87 50.4438 307.075 50.4438Z" fill="#1D1C2B"/>
<rect x="30.582" y="13.2236" width="334" height="60" rx="30" stroke="#E0E0E9" stroke-linecap="round" shape-rendering="crispEdges"/>
</g>
<defs>
<filter id="filter0_d_427_5012" x="0.0820312" y="0.723633" width="395" height="121" filterUnits="userSpaceOnUse" color-interpolation-filters="sRGB">
<feFlood flood-opacity="0" result="BackgroundImageFix"/>
<feColorMatrix in="SourceAlpha" type="matrix" values="0 0 0 0 0 0 0 0 0 0 0 0 0 0 0 0 0 0 127 0" result="hardAlpha"/>
<feOffset dy="18"/>
<feGaussianBlur stdDeviation="15"/>
<feComposite in2="hardAlpha" operator="out"/>
<feColorMatrix type="matrix" values="0 0 0 0 0.512832 0 0 0 0 0.468335 0 0 0 0 0.775363 0 0 0 0.11 0"/>
<feBlend mode="normal" in2="BackgroundImageFix" result="effect1_dropShadow_427_5012"/>
<feBlend mode="normal" in="SourceGraphic" in2="effect1_dropShadow_427_5012" result="shape"/>
</filter>
</defs>
</svg>
