<svg width="192" height="61" viewBox="0 0 394 122" fill="none" xmlns="http://www.w3.org/2000/svg">
<g filter="url(#filter0_d_428_365)">
<rect x="30.2949" y="12.1113" width="333.29" height="61" rx="30.5" fill="white" shape-rendering="crispEdges"/>
<path d="M133.116 38.8869C133.04 38.2145 132.728 37.6937 132.179 37.3244C131.629 36.9503 130.938 36.7633 130.105 36.7633C129.508 36.7633 128.992 36.858 128.557 37.0474C128.121 37.2321 127.782 37.4877 127.541 37.8145C127.304 38.1364 127.186 38.5034 127.186 38.9153C127.186 39.2609 127.266 39.5592 127.427 39.8102C127.593 40.0611 127.808 40.2718 128.074 40.4423C128.343 40.608 128.632 40.7477 128.94 40.8613C129.248 40.9702 129.544 41.0602 129.828 41.1312L131.248 41.5005C131.712 41.6142 132.188 41.7681 132.676 41.9622C133.164 42.1563 133.616 42.412 134.032 42.7292C134.449 43.0465 134.785 43.4395 135.041 43.9082C135.301 44.377 135.432 44.938 135.432 45.5914C135.432 46.4153 135.218 47.1468 134.792 47.786C134.371 48.4252 133.758 48.9295 132.953 49.2988C132.153 49.6681 131.184 49.8528 130.048 49.8528C128.959 49.8528 128.017 49.68 127.221 49.3343C126.426 48.9887 125.803 48.4986 125.353 47.8642C124.904 47.225 124.655 46.4674 124.608 45.5914H126.809C126.852 46.117 127.022 46.555 127.321 46.9054C127.624 47.251 128.01 47.5091 128.478 47.6795C128.952 47.8452 129.47 47.9281 130.034 47.9281C130.654 47.9281 131.206 47.831 131.689 47.6369C132.176 47.438 132.56 47.1634 132.839 46.813C133.119 46.4579 133.258 46.0436 133.258 45.5701C133.258 45.1393 133.135 44.7865 132.889 44.5119C132.647 44.2373 132.318 44.01 131.902 43.8301C131.49 43.6502 131.023 43.4915 130.503 43.3542L128.784 42.8855C127.619 42.5682 126.696 42.1019 126.014 41.4863C125.337 40.8708 124.998 40.0564 124.998 39.0431C124.998 38.2051 125.226 37.4735 125.68 36.8485C126.135 36.2235 126.75 35.7382 127.527 35.3926C128.303 35.0422 129.179 34.867 130.155 34.867C131.139 34.867 132.008 35.0398 132.761 35.3855C133.519 35.7311 134.115 36.207 134.551 36.813C134.986 37.4144 135.214 38.1056 135.233 38.8869H133.116ZM137.884 49.6113V38.7022H140.007V49.6113H137.884ZM138.956 37.019C138.587 37.019 138.27 36.8959 138.004 36.6497C137.744 36.3987 137.614 36.1004 137.614 35.7548C137.614 35.4044 137.744 35.1061 138.004 34.8599C138.27 34.609 138.587 34.4835 138.956 34.4835C139.325 34.4835 139.64 34.609 139.901 34.8599C140.166 35.1061 140.298 35.4044 140.298 35.7548C140.298 36.1004 140.166 36.3987 139.901 36.6497C139.64 36.8959 139.325 37.019 138.956 37.019ZM147.438 53.9295C146.571 53.9295 145.826 53.8159 145.201 53.5886C144.58 53.3613 144.074 53.0607 143.681 52.6866C143.288 52.3126 142.994 51.903 142.8 51.4579L144.625 50.7051C144.753 50.9134 144.924 51.1336 145.137 51.3656C145.355 51.6023 145.648 51.8036 146.017 51.9693C146.392 52.135 146.872 52.2179 147.459 52.2179C148.264 52.2179 148.929 52.0214 149.455 51.6284C149.981 51.2401 150.243 50.6199 150.243 49.7676V47.6227H150.108C149.981 47.8547 149.796 48.1127 149.554 48.3968C149.318 48.6809 148.991 48.9271 148.574 49.1355C148.158 49.3438 147.616 49.448 146.948 49.448C146.086 49.448 145.31 49.2467 144.618 48.8443C143.932 48.4371 143.387 47.8381 142.985 47.0474C142.587 46.252 142.388 45.2742 142.388 44.1142C142.388 42.9541 142.585 41.9598 142.978 41.1312C143.375 40.3026 143.92 39.6681 144.611 39.2278C145.303 38.7827 146.086 38.5602 146.962 38.5602C147.639 38.5602 148.186 38.6738 148.603 38.9011C149.019 39.1236 149.344 39.3841 149.576 39.6824C149.812 39.9806 149.995 40.2434 150.123 40.4707H150.279V38.7022H152.36V49.8528C152.36 50.7903 152.142 51.5597 151.706 52.161C151.271 52.7624 150.681 53.2074 149.938 53.4963C149.199 53.7851 148.366 53.9295 147.438 53.9295ZM147.417 47.6866C148.027 47.6866 148.544 47.5446 148.965 47.2605C149.391 46.9717 149.713 46.5597 149.931 46.0247C150.153 45.4849 150.265 44.8386 150.265 44.0858C150.265 43.3519 150.156 42.7056 149.938 42.1468C149.72 41.5881 149.401 41.1525 148.979 40.84C148.558 40.5228 148.037 40.3642 147.417 40.3642C146.777 40.3642 146.245 40.5299 145.819 40.8613C145.392 41.188 145.071 41.6331 144.853 42.1966C144.64 42.76 144.533 43.3897 144.533 44.0858C144.533 44.8007 144.642 45.4281 144.86 45.9679C145.078 46.5076 145.4 46.929 145.826 47.2321C146.257 47.5351 146.787 47.6866 147.417 47.6866ZM157.331 43.1341V49.6113H155.208V38.7022H157.246V40.4778H157.381C157.632 39.9002 158.025 39.4361 158.56 39.0858C159.1 38.7354 159.779 38.5602 160.598 38.5602C161.342 38.5602 161.993 38.7164 162.552 39.0289C163.11 39.3367 163.544 39.796 163.851 40.4068C164.159 41.0176 164.313 41.7728 164.313 42.6724V49.6113H162.189V42.9281C162.189 42.1374 161.983 41.5195 161.571 41.0744C161.16 40.6246 160.594 40.3997 159.874 40.3997C159.382 40.3997 158.944 40.5062 158.56 40.7193C158.181 40.9324 157.881 41.2449 157.658 41.6568C157.44 42.064 157.331 42.5564 157.331 43.1341ZM179.364 45.0872V38.7022H181.495V49.6113H179.407V47.7221H179.293C179.042 48.3045 178.64 48.7898 178.086 49.1781C177.537 49.5616 176.853 49.7534 176.033 49.7534C175.333 49.7534 174.712 49.5995 174.173 49.2917C173.638 48.9792 173.216 48.5176 172.908 47.9068C172.605 47.296 172.454 46.5408 172.454 45.6412V38.7022H174.578V45.3855C174.578 46.1288 174.783 46.7207 175.195 47.161C175.607 47.6014 176.142 47.8216 176.801 47.8216C177.198 47.8216 177.594 47.7221 177.987 47.5233C178.384 47.3244 178.713 47.0237 178.974 46.6213C179.239 46.2188 179.369 45.7074 179.364 45.0872ZM184.348 53.7022V38.7022H186.422V40.4707H186.6C186.723 40.2434 186.901 39.9806 187.133 39.6824C187.365 39.3841 187.687 39.1236 188.098 38.9011C188.51 38.6738 189.055 38.5602 189.732 38.5602C190.613 38.5602 191.399 38.7827 192.09 39.2278C192.781 39.6729 193.323 40.3145 193.716 41.1525C194.114 41.9906 194.313 42.9991 194.313 44.1781C194.313 45.3571 194.116 46.368 193.723 47.2108C193.33 48.0488 192.791 48.6951 192.104 49.1497C191.418 49.5995 190.634 49.8244 189.753 49.8244C189.09 49.8244 188.548 49.7131 188.127 49.4906C187.71 49.2681 187.383 49.0076 187.147 48.7093C186.91 48.411 186.728 48.1459 186.6 47.9139H186.472V53.7022H184.348ZM186.429 44.1568C186.429 44.9238 186.541 45.5962 186.763 46.1738C186.986 46.7515 187.308 47.2037 187.729 47.5304C188.151 47.8523 188.667 48.0133 189.277 48.0133C189.912 48.0133 190.442 47.8452 190.868 47.5091C191.294 47.1681 191.616 46.7065 191.834 46.1241C192.057 45.5417 192.168 44.8859 192.168 44.1568C192.168 43.4371 192.059 42.7908 191.841 42.2179C191.628 41.6449 191.306 41.1928 190.875 40.8613C190.449 40.5299 189.917 40.3642 189.277 40.3642C188.662 40.3642 188.141 40.5228 187.715 40.84C187.294 41.1573 186.974 41.6 186.756 42.1681C186.538 42.7363 186.429 43.3992 186.429 44.1568ZM204.35 49.6113L201.14 38.7022H203.335L205.472 46.7136H205.579L207.724 38.7022H209.918L212.049 46.6781H212.156L214.279 38.7022H216.474L213.271 49.6113H211.104L208.889 41.7349H208.725L206.509 49.6113H204.35ZM218.489 49.6113V38.7022H220.613V49.6113H218.489ZM219.562 37.019C219.192 37.019 218.875 36.8959 218.61 36.6497C218.349 36.3987 218.219 36.1004 218.219 35.7548C218.219 35.4044 218.349 35.1061 218.61 34.8599C218.875 34.609 219.192 34.4835 219.562 34.4835C219.931 34.4835 220.246 34.609 220.506 34.8599C220.771 35.1061 220.904 35.4044 220.904 35.7548C220.904 36.1004 220.771 36.3987 220.506 36.6497C220.246 36.8959 219.931 37.019 219.562 37.019ZM228.562 38.7022V40.4068H222.603V38.7022H228.562ZM224.201 36.0886H226.325V46.4082C226.325 46.8201 226.386 47.1303 226.509 47.3386C226.632 47.5422 226.791 47.6819 226.985 47.7576C227.184 47.8287 227.399 47.8642 227.631 47.8642C227.802 47.8642 227.951 47.8523 228.079 47.8287C228.207 47.805 228.306 47.786 228.377 47.7718L228.761 49.5261C228.638 49.5734 228.462 49.6208 228.235 49.6681C228.008 49.7202 227.724 49.7486 227.383 49.7534C226.824 49.7628 226.303 49.6634 225.82 49.4551C225.337 49.2467 224.947 48.9248 224.649 48.4892C224.35 48.0536 224.201 47.5067 224.201 46.8485V36.0886ZM233.269 43.1341V49.6113H231.145V35.0659H233.241V40.4778H233.375C233.631 39.8907 234.022 39.4243 234.547 39.0787C235.073 38.733 235.759 38.5602 236.607 38.5602C237.355 38.5602 238.008 38.7141 238.567 39.0218C239.131 39.3296 239.566 39.7889 239.874 40.3997C240.187 41.0057 240.343 41.7633 240.343 42.6724V49.6113H238.219V42.9281C238.219 42.1279 238.013 41.5076 237.601 41.0673C237.189 40.6222 236.616 40.3997 235.883 40.3997C235.381 40.3997 234.931 40.5062 234.533 40.7193C234.14 40.9324 233.83 41.2449 233.603 41.6568C233.38 42.064 233.269 42.5564 233.269 43.1341ZM247.923 36.9551V35.0659H259.18V36.9551H254.641V49.6113H252.454V36.9551H247.923ZM262.612 49.6113L259.402 38.7022H261.596L263.734 46.7136H263.841L265.986 38.7022H268.18L270.311 46.6781H270.417L272.541 38.7022H274.736L271.532 49.6113H269.366L267.15 41.7349H266.987L264.771 49.6113H262.612ZM276.751 49.6113V38.7022H278.874V49.6113H276.751ZM277.823 37.019C277.454 37.019 277.137 36.8959 276.872 36.6497C276.611 36.3987 276.481 36.1004 276.481 35.7548C276.481 35.4044 276.611 35.1061 276.872 34.8599C277.137 34.609 277.454 34.4835 277.823 34.4835C278.193 34.4835 278.507 34.609 278.768 34.8599C279.033 35.1061 279.166 35.4044 279.166 35.7548C279.166 36.1004 279.033 36.3987 278.768 36.6497C278.507 36.8959 278.193 37.019 277.823 37.019ZM286.824 38.7022V40.4068H280.865V38.7022H286.824ZM282.463 36.0886H284.586V46.4082C284.586 46.8201 284.648 47.1303 284.771 47.3386C284.894 47.5422 285.053 47.6819 285.247 47.7576C285.446 47.8287 285.661 47.8642 285.893 47.8642C286.064 47.8642 286.213 47.8523 286.341 47.8287C286.468 47.805 286.568 47.786 286.639 47.7718L287.022 49.5261C286.899 49.5734 286.724 49.6208 286.497 49.6681C286.27 49.7202 285.986 49.7486 285.645 49.7534C285.086 49.7628 284.565 49.6634 284.082 49.4551C283.599 49.2467 283.209 48.9248 282.91 48.4892C282.612 48.0536 282.463 47.5067 282.463 46.8485V36.0886ZM294.265 38.7022V40.4068H288.306V38.7022H294.265ZM289.904 36.0886H292.028V46.4082C292.028 46.8201 292.089 47.1303 292.212 47.3386C292.336 47.5422 292.494 47.6819 292.688 47.7576C292.887 47.8287 293.103 47.8642 293.335 47.8642C293.505 47.8642 293.654 47.8523 293.782 47.8287C293.91 47.805 294.009 47.786 294.08 47.7718L294.464 49.5261C294.341 49.5734 294.166 49.6208 293.938 49.6681C293.711 49.7202 293.427 49.7486 293.086 49.7534C292.527 49.7628 292.006 49.6634 291.524 49.4551C291.041 49.2467 290.65 48.9248 290.352 48.4892C290.053 48.0536 289.904 47.5067 289.904 46.8485V36.0886ZM301.199 49.8315C300.124 49.8315 299.198 49.6019 298.422 49.1426C297.65 48.6786 297.053 48.0275 296.632 47.1895C296.215 46.3467 296.007 45.3594 296.007 44.2278C296.007 43.1104 296.215 42.1255 296.632 41.2733C297.053 40.421 297.64 39.7557 298.393 39.2775C299.151 38.7993 300.036 38.5602 301.049 38.5602C301.665 38.5602 302.262 38.662 302.839 38.8656C303.417 39.0692 303.935 39.3888 304.395 39.8244C304.854 40.26 305.216 40.8258 305.481 41.5218C305.746 42.2131 305.879 43.0536 305.879 44.0431V44.796H297.207V43.2051H303.798C303.798 42.6464 303.684 42.1516 303.457 41.7207C303.23 41.2851 302.91 40.9418 302.498 40.6909C302.091 40.4399 301.613 40.3145 301.064 40.3145C300.467 40.3145 299.946 40.4612 299.501 40.7548C299.061 41.0436 298.72 41.4224 298.478 41.8912C298.242 42.3552 298.123 42.8594 298.123 43.4039V44.6468C298.123 45.376 298.251 45.9963 298.507 46.5076C298.767 47.019 299.129 47.4096 299.593 47.6795C300.057 47.9447 300.6 48.0772 301.22 48.0772C301.622 48.0772 301.989 48.0204 302.321 47.9068C302.652 47.7884 302.939 47.6132 303.18 47.3812C303.422 47.1492 303.606 46.8627 303.734 46.5218L305.744 46.8841C305.583 47.4759 305.294 47.9944 304.878 48.4395C304.466 48.8798 303.947 49.2231 303.322 49.4693C302.702 49.7108 301.994 49.8315 301.199 49.8315ZM308.235 49.6113V38.7022H310.288V40.4352H310.401C310.6 39.8481 310.951 39.3864 311.453 39.0502C311.959 38.7093 312.532 38.5389 313.171 38.5389C313.304 38.5389 313.46 38.5436 313.64 38.5531C313.825 38.5626 313.969 38.5744 314.073 38.5886V40.6199C313.988 40.5962 313.837 40.5701 313.619 40.5417C313.401 40.5086 313.183 40.492 312.965 40.492C312.463 40.492 312.016 40.5985 311.623 40.8116C311.235 41.0199 310.927 41.3111 310.7 41.6852C310.472 42.0545 310.359 42.4759 310.359 42.9494V49.6113H308.235Z" fill="#1D1C2B"/>
<path d="M88.1918 54.1113C98.8678 54.1113 104.706 45.2635 104.706 37.5909C104.706 37.3396 104.701 37.0895 104.69 36.8404C105.826 36.0181 106.806 35 107.585 33.8337C106.545 34.2963 105.426 34.6076 104.252 34.7479C105.45 34.0291 106.37 32.8919 106.804 31.5364C105.665 32.2126 104.418 32.6892 103.118 32.9458C102.059 31.8172 100.551 31.1113 98.8818 31.1113C95.6765 31.1113 93.0773 33.7116 93.0773 36.9168C93.0773 37.3725 93.1283 37.8156 93.2279 38.2408C88.4039 37.9979 84.1264 35.6875 81.2636 32.1743C80.748 33.0604 80.4768 34.0674 80.4777 35.0926C80.4777 37.1071 81.5023 38.8854 83.0606 39.9258C82.1389 39.8976 81.2374 39.6486 80.4319 39.1996C80.4311 39.2239 80.4311 39.2477 80.4311 39.2737C80.4311 42.0857 82.4317 44.4334 85.0875 44.9654C84.5887 45.1013 84.074 45.17 83.5571 45.1697C83.1837 45.1697 82.8198 45.133 82.4662 45.0651C83.2052 47.3721 85.3478 49.0509 87.8882 49.0978C85.9017 50.6555 83.3992 51.5832 80.6794 51.5832C80.2167 51.5836 79.7544 51.5568 79.2949 51.5028C81.8637 53.1499 84.9138 54.1109 88.1921 54.1109" fill="#1D9BF0"/>
<rect x="30.7949" y="12.6113" width="332.29" height="60" rx="30" stroke="#E0E0E9" shape-rendering="crispEdges"/>
</g>
<defs>
<filter id="filter0_d_428_365" x="0.294922" y="0.111328" width="393.29" height="121" filterUnits="userSpaceOnUse" color-interpolation-filters="sRGB">
<feFlood flood-opacity="0" result="BackgroundImageFix"/>
<feColorMatrix in="SourceAlpha" type="matrix" values="0 0 0 0 0 0 0 0 0 0 0 0 0 0 0 0 0 0 127 0" result="hardAlpha"/>
<feOffset dy="18"/>
<feGaussianBlur stdDeviation="15"/>
<feComposite in2="hardAlpha" operator="out"/>
<feColorMatrix type="matrix" values="0 0 0 0 0.512832 0 0 0 0 0.468335 0 0 0 0 0.775363 0 0 0 0.11 0"/>
<feBlend mode="normal" in2="BackgroundImageFix" result="effect1_dropShadow_428_365"/>
<feBlend mode="normal" in="SourceGraphic" in2="effect1_dropShadow_428_365" result="shape"/>
</filter>
</defs>
</svg>
